<svg xmlns="http://www.w3.org/2000/svg" width="1200" height="630" viewBox="0 0 1200 630" role="img" aria-labelledby="title desc">
  <title id="title">AI Workbench .supra Examples</title>
  <desc id="desc">47 packages aligned to the .supra v1 standard</desc>
  <defs>
    <linearGradient id="bg" x1="0" x2="1" y1="0" y2="1">
      <stop offset="0%" stop-color="rgb(8 17 31)"/>
      <stop offset="100%" stop-color="rgb(17 39 58)"/>
    </linearGradient>
    <filter id="shadow" x="-20%" y="-20%" width="140%" height="140%">
      <feDropShadow dx="0" dy="10" stdDeviation="9" flood-color="#000" flood-opacity="0.24"/>
    </filter>
    <marker id="arrow" viewBox="0 0 10 10" refX="8" refY="5" markerWidth="7" markerHeight="7" orient="auto-start-reverse">
      <path d="M 0 0 L 10 5 L 0 10 z" fill="rgb(111 218 238)"/>
    </marker>
  </defs>
  <rect width="1200" height="630" rx="28" fill="url(#bg)"/>
  <line x1="0" y1="0" x2="0" y2="630" stroke="rgb(42 76 102 / 0.16)" stroke-width="1"/>
<line x1="80" y1="0" x2="80" y2="630" stroke="rgb(42 76 102 / 0.16)" stroke-width="1"/>
<line x1="160" y1="0" x2="160" y2="630" stroke="rgb(42 76 102 / 0.16)" stroke-width="1"/>
<line x1="240" y1="0" x2="240" y2="630" stroke="rgb(42 76 102 / 0.16)" stroke-width="1"/>
<line x1="320" y1="0" x2="320" y2="630" stroke="rgb(42 76 102 / 0.16)" stroke-width="1"/>
<line x1="400" y1="0" x2="400" y2="630" stroke="rgb(42 76 102 / 0.16)" stroke-width="1"/>
<line x1="480" y1="0" x2="480" y2="630" stroke="rgb(42 76 102 / 0.16)" stroke-width="1"/>
<line x1="560" y1="0" x2="560" y2="630" stroke="rgb(42 76 102 / 0.16)" stroke-width="1"/>
<line x1="640" y1="0" x2="640" y2="630" stroke="rgb(42 76 102 / 0.16)" stroke-width="1"/>
<line x1="720" y1="0" x2="720" y2="630" stroke="rgb(42 76 102 / 0.16)" stroke-width="1"/>
<line x1="800" y1="0" x2="800" y2="630" stroke="rgb(42 76 102 / 0.16)" stroke-width="1"/>
<line x1="880" y1="0" x2="880" y2="630" stroke="rgb(42 76 102 / 0.16)" stroke-width="1"/>
<line x1="960" y1="0" x2="960" y2="630" stroke="rgb(42 76 102 / 0.16)" stroke-width="1"/>
<line x1="1040" y1="0" x2="1040" y2="630" stroke="rgb(42 76 102 / 0.16)" stroke-width="1"/>
<line x1="1120" y1="0" x2="1120" y2="630" stroke="rgb(42 76 102 / 0.16)" stroke-width="1"/>
<line x1="1200" y1="0" x2="1200" y2="630" stroke="rgb(42 76 102 / 0.16)" stroke-width="1"/>
<line x1="0" y1="0" x2="1200" y2="0" stroke="rgb(42 76 102 / 0.13)" stroke-width="1"/>
<line x1="0" y1="80" x2="1200" y2="80" stroke="rgb(42 76 102 / 0.13)" stroke-width="1"/>
<line x1="0" y1="160" x2="1200" y2="160" stroke="rgb(42 76 102 / 0.13)" stroke-width="1"/>
<line x1="0" y1="240" x2="1200" y2="240" stroke="rgb(42 76 102 / 0.13)" stroke-width="1"/>
<line x1="0" y1="320" x2="1200" y2="320" stroke="rgb(42 76 102 / 0.13)" stroke-width="1"/>
<line x1="0" y1="400" x2="1200" y2="400" stroke="rgb(42 76 102 / 0.13)" stroke-width="1"/>
<line x1="0" y1="480" x2="1200" y2="480" stroke="rgb(42 76 102 / 0.13)" stroke-width="1"/>
<line x1="0" y1="560" x2="1200" y2="560" stroke="rgb(42 76 102 / 0.13)" stroke-width="1"/>
  <path d="M 0 540 C 300 470, 816 600, 1200 510" fill="none" stroke="rgb(111 218 238 / 0.28)" stroke-width="4"/>
  <path d="M 744 0 C 912 120, 1080 170, 1200 260" fill="none" stroke="rgb(186 238 111 / 0.22)" stroke-width="5"/>
  <rect x="36" y="48" width="560" height="466" rx="28" fill="rgb(8 17 31 / 0.72)" stroke="rgb(111 218 238 / 0.18)" stroke-width="1"/>
<text x="56" y="78" fill="rgb(245 250 255)" font-size="28" font-family="Arial, Helvetica, sans-serif" font-weight="700">AI Workbench</text>
<text x="56" y="158" fill="rgb(245 250 255)" font-size="66" font-family="Arial, Helvetica, sans-serif" font-weight="700">.supra</text>
<text x="56" y="226" fill="rgb(245 250 255)" font-size="66" font-family="Arial, Helvetica, sans-serif" font-weight="700">Examples</text>
<text x="60" y="290" fill="rgb(184 211 225)" font-size="20" font-family="Arial, Helvetica, sans-serif" font-weight="400">47 portable packages aligned to the v1 standard</text>
<text x="60" y="312" fill="rgb(184 211 225)" font-size="20" font-family="Arial, Helvetica, sans-serif" font-weight="400">Bilingual docs, strict validation, review-first outputs</text>
<rect x="56" y="372" width="218" height="54" rx="27" fill="rgb(111 218 238 / 0.14)" stroke="rgb(111 218 238 / 0.65)" stroke-width="2"/>
<text x="85" y="406" fill="rgb(245 250 255)" font-size="20" font-family="Arial, Helvetica, sans-serif" font-weight="700">v1 standard</text>
<rect x="300" y="372" width="218" height="54" rx="27" fill="rgb(186 238 111 / 0.12)" stroke="rgb(186 238 111 / 0.58)" stroke-width="2"/>
<text x="329" y="406" fill="rgb(245 250 255)" font-size="20" font-family="Arial, Helvetica, sans-serif" font-weight="700">EN / DE docs</text>
<rect x="56" y="444" width="218" height="54" rx="27" fill="rgb(246 189 96 / 0.14)" stroke="rgb(246 189 96 / 0.58)" stroke-width="2"/>
<text x="85" y="478" fill="rgb(245 250 255)" font-size="20" font-family="Arial, Helvetica, sans-serif" font-weight="700">CI ready</text>
<g filter="url(#shadow)">
<rect x="640" y="92" width="220" height="120" rx="16" fill="rgb(18 48 72)" stroke="rgb(111 218 238 / 0.72)" stroke-width="2"/>
<rect x="640" y="92" width="220" height="7" rx="3.5" fill="rgb(111 218 238)"/>
<text x="662" y="135" fill="rgb(245 250 255)" font-size="18" font-family="Arial, Helvetica, sans-serif" font-weight="700">Contracts</text>
<text x="662" y="170" fill="rgb(184 211 225)" font-size="14" font-family="Arial, Helvetica, sans-serif" font-weight="400">JSON output fields</text>
<text x="662" y="192" fill="rgb(184 211 225)" font-size="14" font-family="Arial, Helvetica, sans-serif" font-weight="400">quality gates</text>
</g>
<g filter="url(#shadow)">
<rect x="894" y="92" width="220" height="120" rx="16" fill="rgb(18 48 72)" stroke="rgb(186 238 111 / 0.72)" stroke-width="2"/>
<rect x="894" y="92" width="220" height="7" rx="3.5" fill="rgb(186 238 111)"/>
<text x="916" y="135" fill="rgb(245 250 255)" font-size="18" font-family="Arial, Helvetica, sans-serif" font-weight="700">Validation</text>
<text x="916" y="170" fill="rgb(184 211 225)" font-size="14" font-family="Arial, Helvetica, sans-serif" font-weight="400">schema checks</text>
<text x="916" y="192" fill="rgb(184 211 225)" font-size="14" font-family="Arial, Helvetica, sans-serif" font-weight="400">mirror checks</text>
</g>
<g filter="url(#shadow)">
<rect x="640" y="252" width="220" height="120" rx="16" fill="rgb(18 48 72)" stroke="rgb(246 189 96 / 0.72)" stroke-width="2"/>
<rect x="640" y="252" width="220" height="7" rx="3.5" fill="rgb(246 189 96)"/>
<text x="662" y="295" fill="rgb(245 250 255)" font-size="18" font-family="Arial, Helvetica, sans-serif" font-weight="700">Workflows</text>
<text x="662" y="330" fill="rgb(184 211 225)" font-size="14" font-family="Arial, Helvetica, sans-serif" font-weight="400">ordered steps</text>
<text x="662" y="352" fill="rgb(184 211 225)" font-size="14" font-family="Arial, Helvetica, sans-serif" font-weight="400">review-first run</text>
</g>
<g filter="url(#shadow)">
<rect x="894" y="252" width="220" height="120" rx="16" fill="rgb(18 48 72)" stroke="rgb(238 111 164 / 0.72)" stroke-width="2"/>
<rect x="894" y="252" width="220" height="7" rx="3.5" fill="rgb(238 111 164)"/>
<text x="916" y="295" fill="rgb(245 250 255)" font-size="18" font-family="Arial, Helvetica, sans-serif" font-weight="700">Docs</text>
<text x="916" y="330" fill="rgb(184 211 225)" font-size="14" font-family="Arial, Helvetica, sans-serif" font-weight="400">generated package</text>
<text x="916" y="352" fill="rgb(184 211 225)" font-size="14" font-family="Arial, Helvetica, sans-serif" font-weight="400">references</text>
</g>
<line x1="724" y1="430" x2="834" y2="430" stroke="rgb(111 218 238)" stroke-width="4" stroke-linecap="round" marker-end="url(#arrow)"/>
<line x1="834" y1="430" x2="944" y2="430" stroke="rgb(186 238 111)" stroke-width="4" stroke-linecap="round" marker-end="url(#arrow)"/>
<g filter="url(#shadow)">
<rect x="640" y="470" width="150" height="86" rx="16" fill="rgb(18 48 72)" stroke="rgb(111 218 238 / 0.72)" stroke-width="2"/>
<rect x="640" y="470" width="150" height="7" rx="3.5" fill="rgb(111 218 238)"/>
<text x="662" y="513" fill="rgb(245 250 255)" font-size="18" font-family="Arial, Helvetica, sans-serif" font-weight="700">Author</text>
<text x="662" y="548" fill="rgb(184 211 225)" font-size="14" font-family="Arial, Helvetica, sans-serif" font-weight="400">package JSON</text>
</g>
<g filter="url(#shadow)">
<rect x="810" y="470" width="150" height="86" rx="16" fill="rgb(18 48 72)" stroke="rgb(186 238 111 / 0.72)" stroke-width="2"/>
<rect x="810" y="470" width="150" height="7" rx="3.5" fill="rgb(186 238 111)"/>
<text x="832" y="513" fill="rgb(245 250 255)" font-size="18" font-family="Arial, Helvetica, sans-serif" font-weight="700">Import</text>
<text x="832" y="548" fill="rgb(184 211 225)" font-size="14" font-family="Arial, Helvetica, sans-serif" font-weight="400">workbench</text>
</g>
<g filter="url(#shadow)">
<rect x="980" y="470" width="150" height="86" rx="16" fill="rgb(18 48 72)" stroke="rgb(246 189 96 / 0.72)" stroke-width="2"/>
<rect x="980" y="470" width="150" height="7" rx="3.5" fill="rgb(246 189 96)"/>
<text x="1002" y="513" fill="rgb(245 250 255)" font-size="18" font-family="Arial, Helvetica, sans-serif" font-weight="700">Review</text>
<text x="1002" y="548" fill="rgb(184 211 225)" font-size="14" font-family="Arial, Helvetica, sans-serif" font-weight="400">approval</text>
</g>
</svg>
