<svg xmlns="http://www.w3.org/2000/svg" width="1200" height="560" viewBox="0 0 1200 560" role="img" aria-labelledby="title desc">
  <title id="title">.supra Import / Export Flow</title>
  <desc id="desc">How maintainers improve .supra packages</desc>
  <defs>
    <linearGradient id="bg" x1="0" x2="1" y1="0" y2="1">
      <stop offset="0%" stop-color="rgb(8 17 31)"/>
      <stop offset="100%" stop-color="rgb(17 39 58)"/>
    </linearGradient>
    <filter id="shadow" x="-20%" y="-20%" width="140%" height="140%">
      <feDropShadow dx="0" dy="10" stdDeviation="9" flood-color="#000" flood-opacity="0.24"/>
    </filter>
    <marker id="arrow" viewBox="0 0 10 10" refX="8" refY="5" markerWidth="7" markerHeight="7" orient="auto-start-reverse">
      <path d="M 0 0 L 10 5 L 0 10 z" fill="rgb(111 218 238)"/>
    </marker>
  </defs>
  <rect width="1200" height="560" rx="28" fill="url(#bg)"/>
  <line x1="0" y1="0" x2="0" y2="560" stroke="rgb(42 76 102 / 0.16)" stroke-width="1"/>
<line x1="80" y1="0" x2="80" y2="560" stroke="rgb(42 76 102 / 0.16)" stroke-width="1"/>
<line x1="160" y1="0" x2="160" y2="560" stroke="rgb(42 76 102 / 0.16)" stroke-width="1"/>
<line x1="240" y1="0" x2="240" y2="560" stroke="rgb(42 76 102 / 0.16)" stroke-width="1"/>
<line x1="320" y1="0" x2="320" y2="560" stroke="rgb(42 76 102 / 0.16)" stroke-width="1"/>
<line x1="400" y1="0" x2="400" y2="560" stroke="rgb(42 76 102 / 0.16)" stroke-width="1"/>
<line x1="480" y1="0" x2="480" y2="560" stroke="rgb(42 76 102 / 0.16)" stroke-width="1"/>
<line x1="560" y1="0" x2="560" y2="560" stroke="rgb(42 76 102 / 0.16)" stroke-width="1"/>
<line x1="640" y1="0" x2="640" y2="560" stroke="rgb(42 76 102 / 0.16)" stroke-width="1"/>
<line x1="720" y1="0" x2="720" y2="560" stroke="rgb(42 76 102 / 0.16)" stroke-width="1"/>
<line x1="800" y1="0" x2="800" y2="560" stroke="rgb(42 76 102 / 0.16)" stroke-width="1"/>
<line x1="880" y1="0" x2="880" y2="560" stroke="rgb(42 76 102 / 0.16)" stroke-width="1"/>
<line x1="960" y1="0" x2="960" y2="560" stroke="rgb(42 76 102 / 0.16)" stroke-width="1"/>
<line x1="1040" y1="0" x2="1040" y2="560" stroke="rgb(42 76 102 / 0.16)" stroke-width="1"/>
<line x1="1120" y1="0" x2="1120" y2="560" stroke="rgb(42 76 102 / 0.16)" stroke-width="1"/>
<line x1="1200" y1="0" x2="1200" y2="560" stroke="rgb(42 76 102 / 0.16)" stroke-width="1"/>
<line x1="0" y1="0" x2="1200" y2="0" stroke="rgb(42 76 102 / 0.13)" stroke-width="1"/>
<line x1="0" y1="80" x2="1200" y2="80" stroke="rgb(42 76 102 / 0.13)" stroke-width="1"/>
<line x1="0" y1="160" x2="1200" y2="160" stroke="rgb(42 76 102 / 0.13)" stroke-width="1"/>
<line x1="0" y1="240" x2="1200" y2="240" stroke="rgb(42 76 102 / 0.13)" stroke-width="1"/>
<line x1="0" y1="320" x2="1200" y2="320" stroke="rgb(42 76 102 / 0.13)" stroke-width="1"/>
<line x1="0" y1="400" x2="1200" y2="400" stroke="rgb(42 76 102 / 0.13)" stroke-width="1"/>
<line x1="0" y1="480" x2="1200" y2="480" stroke="rgb(42 76 102 / 0.13)" stroke-width="1"/>
<line x1="0" y1="560" x2="1200" y2="560" stroke="rgb(42 76 102 / 0.13)" stroke-width="1"/>
  <path d="M 0 470 C 300 400, 816 530, 1200 440" fill="none" stroke="rgb(111 218 238 / 0.28)" stroke-width="4"/>
  <path d="M 744 0 C 912 120, 1080 170, 1200 260" fill="none" stroke="rgb(186 238 111 / 0.22)" stroke-width="5"/>
  <text x="48" y="72" fill="rgb(245 250 255)" font-size="36" font-family="Arial, Helvetica, sans-serif" font-weight="700">.supra Import / Export Flow</text>
<text x="50" y="108" fill="rgb(184 211 225)" font-size="18" font-family="Arial, Helvetica, sans-serif" font-weight="400">Author, validate, document, import, review, and improve examples</text>
<g filter="url(#shadow)">
<rect x="60" y="196" width="180" height="118" rx="16" fill="rgb(18 48 72)" stroke="rgb(111 218 238 / 0.72)" stroke-width="2"/>
<rect x="60" y="196" width="180" height="7" rx="3.5" fill="rgb(111 218 238)"/>
<circle cx="90" cy="235" r="18" fill="rgb(111 218 238 / 0.22)" stroke="rgb(111 218 238)" stroke-width="2"/>
<text x="82" y="242" fill="rgb(245 250 255)" font-size="18" font-family="Arial, Helvetica, sans-serif" font-weight="700">1</text>
<text x="118" y="239" fill="rgb(245 250 255)" font-size="18" font-family="Arial, Helvetica, sans-serif" font-weight="700">Author</text>
<text x="82" y="274" fill="rgb(184 211 225)" font-size="14" font-family="Arial, Helvetica, sans-serif" font-weight="400">edit package</text>
<text x="82" y="296" fill="rgb(184 211 225)" font-size="14" font-family="Arial, Helvetica, sans-serif" font-weight="400">JSON</text>
</g>
<line x1="246" y1="255" x2="282" y2="255" stroke="rgb(111 218 238)" stroke-width="4" stroke-linecap="round" marker-end="url(#arrow)"/>
<g filter="url(#shadow)">
<rect x="300" y="196" width="180" height="118" rx="16" fill="rgb(18 48 72)" stroke="rgb(186 238 111 / 0.72)" stroke-width="2"/>
<rect x="300" y="196" width="180" height="7" rx="3.5" fill="rgb(186 238 111)"/>
<circle cx="330" cy="235" r="18" fill="rgb(186 238 111 / 0.22)" stroke="rgb(186 238 111)" stroke-width="2"/>
<text x="322" y="242" fill="rgb(245 250 255)" font-size="18" font-family="Arial, Helvetica, sans-serif" font-weight="700">2</text>
<text x="358" y="239" fill="rgb(245 250 255)" font-size="18" font-family="Arial, Helvetica, sans-serif" font-weight="700">Validate</text>
<text x="322" y="274" fill="rgb(184 211 225)" font-size="14" font-family="Arial, Helvetica, sans-serif" font-weight="400">run v1</text>
<text x="322" y="296" fill="rgb(184 211 225)" font-size="14" font-family="Arial, Helvetica, sans-serif" font-weight="400">checks</text>
</g>
<line x1="486" y1="255" x2="522" y2="255" stroke="rgb(186 238 111)" stroke-width="4" stroke-linecap="round" marker-end="url(#arrow)"/>
<g filter="url(#shadow)">
<rect x="540" y="196" width="180" height="118" rx="16" fill="rgb(18 48 72)" stroke="rgb(246 189 96 / 0.72)" stroke-width="2"/>
<rect x="540" y="196" width="180" height="7" rx="3.5" fill="rgb(246 189 96)"/>
<circle cx="570" cy="235" r="18" fill="rgb(246 189 96 / 0.22)" stroke="rgb(246 189 96)" stroke-width="2"/>
<text x="562" y="242" fill="rgb(245 250 255)" font-size="18" font-family="Arial, Helvetica, sans-serif" font-weight="700">3</text>
<text x="598" y="239" fill="rgb(245 250 255)" font-size="18" font-family="Arial, Helvetica, sans-serif" font-weight="700">Document</text>
<text x="562" y="274" fill="rgb(184 211 225)" font-size="14" font-family="Arial, Helvetica, sans-serif" font-weight="400">generate</text>
<text x="562" y="296" fill="rgb(184 211 225)" font-size="14" font-family="Arial, Helvetica, sans-serif" font-weight="400">EN/DE docs</text>
</g>
<line x1="726" y1="255" x2="762" y2="255" stroke="rgb(246 189 96)" stroke-width="4" stroke-linecap="round" marker-end="url(#arrow)"/>
<g filter="url(#shadow)">
<rect x="780" y="196" width="180" height="118" rx="16" fill="rgb(18 48 72)" stroke="rgb(238 111 164 / 0.72)" stroke-width="2"/>
<rect x="780" y="196" width="180" height="7" rx="3.5" fill="rgb(238 111 164)"/>
<circle cx="810" cy="235" r="18" fill="rgb(238 111 164 / 0.22)" stroke="rgb(238 111 164)" stroke-width="2"/>
<text x="802" y="242" fill="rgb(245 250 255)" font-size="18" font-family="Arial, Helvetica, sans-serif" font-weight="700">4</text>
<text x="838" y="239" fill="rgb(245 250 255)" font-size="18" font-family="Arial, Helvetica, sans-serif" font-weight="700">Import</text>
<text x="802" y="274" fill="rgb(184 211 225)" font-size="14" font-family="Arial, Helvetica, sans-serif" font-weight="400">load mirror</text>
<text x="802" y="296" fill="rgb(184 211 225)" font-size="14" font-family="Arial, Helvetica, sans-serif" font-weight="400">to Workbench</text>
</g>
<line x1="966" y1="255" x2="1002" y2="255" stroke="rgb(238 111 164)" stroke-width="4" stroke-linecap="round" marker-end="url(#arrow)"/>
<g filter="url(#shadow)">
<rect x="1020" y="196" width="130" height="118" rx="16" fill="rgb(18 48 72)" stroke="rgb(111 218 238 / 0.72)" stroke-width="2"/>
<rect x="1020" y="196" width="130" height="7" rx="3.5" fill="rgb(111 218 238)"/>
<circle cx="1050" cy="235" r="18" fill="rgb(111 218 238 / 0.22)" stroke="rgb(111 218 238)" stroke-width="2"/>
<text x="1042" y="242" fill="rgb(245 250 255)" font-size="18" font-family="Arial, Helvetica, sans-serif" font-weight="700">5</text>
<text x="1078" y="239" fill="rgb(245 250 255)" font-size="18" font-family="Arial, Helvetica, sans-serif" font-weight="700">Review</text>
<text x="1042" y="274" fill="rgb(184 211 225)" font-size="14" font-family="Arial, Helvetica, sans-serif" font-weight="400">run safely</text>
<text x="1042" y="296" fill="rgb(184 211 225)" font-size="14" font-family="Arial, Helvetica, sans-serif" font-weight="400">refine</text>
</g>
<path d="M 1085 350 C 840 482, 330 484, 160 350" fill="none" stroke="rgb(111 218 238 / 0.42)" stroke-width="4" marker-end="url(#arrow)"/>
<text x="430" y="444" fill="rgb(245 250 255)" font-size="22" font-family="Arial, Helvetica, sans-serif" font-weight="700">Improvements return through package JSON, docs, CI, and pull requests.</text>
</svg>
