<svg xmlns="http://www.w3.org/2000/svg" width="1200" height="680" viewBox="0 0 1200 680" role="img" aria-labelledby="title desc">
  <title id="title">AI Workbench .supra Architecture</title>
  <desc id="desc">Architecture for importable .supra v1 examples</desc>
  <defs>
    <linearGradient id="bg" x1="0" x2="1" y1="0" y2="1">
      <stop offset="0%" stop-color="rgb(8 17 31)"/>
      <stop offset="100%" stop-color="rgb(17 39 58)"/>
    </linearGradient>
    <filter id="shadow" x="-20%" y="-20%" width="140%" height="140%">
      <feDropShadow dx="0" dy="10" stdDeviation="9" flood-color="#000" flood-opacity="0.24"/>
    </filter>
    <marker id="arrow" viewBox="0 0 10 10" refX="8" refY="5" markerWidth="7" markerHeight="7" orient="auto-start-reverse">
      <path d="M 0 0 L 10 5 L 0 10 z" fill="rgb(111 218 238)"/>
    </marker>
  </defs>
  <rect width="1200" height="680" rx="28" fill="url(#bg)"/>
  <line x1="0" y1="0" x2="0" y2="680" stroke="rgb(42 76 102 / 0.16)" stroke-width="1"/>
<line x1="80" y1="0" x2="80" y2="680" stroke="rgb(42 76 102 / 0.16)" stroke-width="1"/>
<line x1="160" y1="0" x2="160" y2="680" stroke="rgb(42 76 102 / 0.16)" stroke-width="1"/>
<line x1="240" y1="0" x2="240" y2="680" stroke="rgb(42 76 102 / 0.16)" stroke-width="1"/>
<line x1="320" y1="0" x2="320" y2="680" stroke="rgb(42 76 102 / 0.16)" stroke-width="1"/>
<line x1="400" y1="0" x2="400" y2="680" stroke="rgb(42 76 102 / 0.16)" stroke-width="1"/>
<line x1="480" y1="0" x2="480" y2="680" stroke="rgb(42 76 102 / 0.16)" stroke-width="1"/>
<line x1="560" y1="0" x2="560" y2="680" stroke="rgb(42 76 102 / 0.16)" stroke-width="1"/>
<line x1="640" y1="0" x2="640" y2="680" stroke="rgb(42 76 102 / 0.16)" stroke-width="1"/>
<line x1="720" y1="0" x2="720" y2="680" stroke="rgb(42 76 102 / 0.16)" stroke-width="1"/>
<line x1="800" y1="0" x2="800" y2="680" stroke="rgb(42 76 102 / 0.16)" stroke-width="1"/>
<line x1="880" y1="0" x2="880" y2="680" stroke="rgb(42 76 102 / 0.16)" stroke-width="1"/>
<line x1="960" y1="0" x2="960" y2="680" stroke="rgb(42 76 102 / 0.16)" stroke-width="1"/>
<line x1="1040" y1="0" x2="1040" y2="680" stroke="rgb(42 76 102 / 0.16)" stroke-width="1"/>
<line x1="1120" y1="0" x2="1120" y2="680" stroke="rgb(42 76 102 / 0.16)" stroke-width="1"/>
<line x1="1200" y1="0" x2="1200" y2="680" stroke="rgb(42 76 102 / 0.16)" stroke-width="1"/>
<line x1="0" y1="0" x2="1200" y2="0" stroke="rgb(42 76 102 / 0.13)" stroke-width="1"/>
<line x1="0" y1="80" x2="1200" y2="80" stroke="rgb(42 76 102 / 0.13)" stroke-width="1"/>
<line x1="0" y1="160" x2="1200" y2="160" stroke="rgb(42 76 102 / 0.13)" stroke-width="1"/>
<line x1="0" y1="240" x2="1200" y2="240" stroke="rgb(42 76 102 / 0.13)" stroke-width="1"/>
<line x1="0" y1="320" x2="1200" y2="320" stroke="rgb(42 76 102 / 0.13)" stroke-width="1"/>
<line x1="0" y1="400" x2="1200" y2="400" stroke="rgb(42 76 102 / 0.13)" stroke-width="1"/>
<line x1="0" y1="480" x2="1200" y2="480" stroke="rgb(42 76 102 / 0.13)" stroke-width="1"/>
<line x1="0" y1="560" x2="1200" y2="560" stroke="rgb(42 76 102 / 0.13)" stroke-width="1"/>
<line x1="0" y1="640" x2="1200" y2="640" stroke="rgb(42 76 102 / 0.13)" stroke-width="1"/>
  <path d="M 0 590 C 300 520, 816 650, 1200 560" fill="none" stroke="rgb(111 218 238 / 0.28)" stroke-width="4"/>
  <path d="M 744 0 C 912 120, 1080 170, 1200 260" fill="none" stroke="rgb(186 238 111 / 0.22)" stroke-width="5"/>
  <text x="48" y="72" fill="rgb(245 250 255)" font-size="36" font-family="Arial, Helvetica, sans-serif" font-weight="700">AI Workbench .supra Architecture</text>
<text x="50" y="108" fill="rgb(184 211 225)" font-size="18" font-family="Arial, Helvetica, sans-serif" font-weight="400">Identity, columns, workflows, contracts, and mirrored imports</text>
<g filter="url(#shadow)">
<rect x="72" y="172" width="240" height="132" rx="16" fill="rgb(18 48 72)" stroke="rgb(111 218 238 / 0.72)" stroke-width="2"/>
<rect x="72" y="172" width="240" height="7" rx="3.5" fill="rgb(111 218 238)"/>
<text x="94" y="215" fill="rgb(245 250 255)" font-size="18" font-family="Arial, Helvetica, sans-serif" font-weight="700">.supra package</text>
<text x="94" y="250" fill="rgb(184 211 225)" font-size="14" font-family="Arial, Helvetica, sans-serif" font-weight="400">metadata identity</text>
<text x="94" y="272" fill="rgb(184 211 225)" font-size="14" font-family="Arial, Helvetica, sans-serif" font-weight="400">columns + prompts</text>
</g>
<line x1="318" y1="238" x2="388" y2="238" stroke="rgb(111 218 238)" stroke-width="4" stroke-linecap="round" marker-end="url(#arrow)"/>
<g filter="url(#shadow)">
<rect x="392" y="172" width="240" height="132" rx="16" fill="rgb(18 48 72)" stroke="rgb(186 238 111 / 0.72)" stroke-width="2"/>
<rect x="392" y="172" width="240" height="7" rx="3.5" fill="rgb(186 238 111)"/>
<text x="414" y="215" fill="rgb(245 250 255)" font-size="18" font-family="Arial, Helvetica, sans-serif" font-weight="700">v1 validator</text>
<text x="414" y="250" fill="rgb(184 211 225)" font-size="14" font-family="Arial, Helvetica, sans-serif" font-weight="400">contracts present</text>
<text x="414" y="272" fill="rgb(184 211 225)" font-size="14" font-family="Arial, Helvetica, sans-serif" font-weight="400">mirrors aligned</text>
</g>
<line x1="638" y1="238" x2="708" y2="238" stroke="rgb(111 218 238)" stroke-width="4" stroke-linecap="round" marker-end="url(#arrow)"/>
<g filter="url(#shadow)">
<rect x="712" y="172" width="240" height="132" rx="16" fill="rgb(18 48 72)" stroke="rgb(246 189 96 / 0.72)" stroke-width="2"/>
<rect x="712" y="172" width="240" height="7" rx="3.5" fill="rgb(246 189 96)"/>
<text x="734" y="215" fill="rgb(245 250 255)" font-size="18" font-family="Arial, Helvetica, sans-serif" font-weight="700">AI Workbench</text>
<text x="734" y="250" fill="rgb(184 211 225)" font-size="14" font-family="Arial, Helvetica, sans-serif" font-weight="400">imports workbench</text>
<text x="734" y="272" fill="rgb(184 211 225)" font-size="14" font-family="Arial, Helvetica, sans-serif" font-weight="400">runs workflows</text>
</g>
<line x1="958" y1="238" x2="1040" y2="238" stroke="rgb(111 218 238)" stroke-width="4" stroke-linecap="round" marker-end="url(#arrow)"/>
<g filter="url(#shadow)">
<rect x="976" y="172" width="164" height="132" rx="16" fill="rgb(18 48 72)" stroke="rgb(238 111 164 / 0.72)" stroke-width="2"/>
<rect x="976" y="172" width="164" height="7" rx="3.5" fill="rgb(238 111 164)"/>
<text x="998" y="215" fill="rgb(245 250 255)" font-size="18" font-family="Arial, Helvetica, sans-serif" font-weight="700">Outputs</text>
<text x="998" y="250" fill="rgb(184 211 225)" font-size="14" font-family="Arial, Helvetica, sans-serif" font-weight="400">reviewed JSON</text>
<text x="998" y="272" fill="rgb(184 211 225)" font-size="14" font-family="Arial, Helvetica, sans-serif" font-weight="400">evidence gaps</text>
</g>
<g filter="url(#shadow)">
<rect x="232" y="420" width="230" height="120" rx="16" fill="rgb(18 48 72)" stroke="rgb(186 238 111 / 0.72)" stroke-width="2"/>
<rect x="232" y="420" width="230" height="7" rx="3.5" fill="rgb(186 238 111)"/>
<text x="254" y="463" fill="rgb(245 250 255)" font-size="18" font-family="Arial, Helvetica, sans-serif" font-weight="700">Generated docs</text>
<text x="254" y="498" fill="rgb(184 211 225)" font-size="14" font-family="Arial, Helvetica, sans-serif" font-weight="400">English + German</text>
<text x="254" y="520" fill="rgb(184 211 225)" font-size="14" font-family="Arial, Helvetica, sans-serif" font-weight="400">source aligned</text>
</g>
<g filter="url(#shadow)">
<rect x="506" y="420" width="230" height="120" rx="16" fill="rgb(18 48 72)" stroke="rgb(246 189 96 / 0.72)" stroke-width="2"/>
<rect x="506" y="420" width="230" height="7" rx="3.5" fill="rgb(246 189 96)"/>
<text x="528" y="463" fill="rgb(245 250 255)" font-size="18" font-family="Arial, Helvetica, sans-serif" font-weight="700">Human review</text>
<text x="528" y="498" fill="rgb(184 211 225)" font-size="14" font-family="Arial, Helvetica, sans-serif" font-weight="400">manual gates</text>
<text x="528" y="520" fill="rgb(184 211 225)" font-size="14" font-family="Arial, Helvetica, sans-serif" font-weight="400">responsible use</text>
</g>
<g filter="url(#shadow)">
<rect x="780" y="420" width="230" height="120" rx="16" fill="rgb(18 48 72)" stroke="rgb(111 218 238 / 0.72)" stroke-width="2"/>
<rect x="780" y="420" width="230" height="7" rx="3.5" fill="rgb(111 218 238)"/>
<text x="802" y="463" fill="rgb(245 250 255)" font-size="18" font-family="Arial, Helvetica, sans-serif" font-weight="700">Audit trail</text>
<text x="802" y="498" fill="rgb(184 211 225)" font-size="14" font-family="Arial, Helvetica, sans-serif" font-weight="400">CI checks</text>
<text x="802" y="520" fill="rgb(184 211 225)" font-size="14" font-family="Arial, Helvetica, sans-serif" font-weight="400">pull requests</text>
</g>
<line x1="492" y1="350" x2="560" y2="410" stroke="rgb(246 189 96)" stroke-width="4" stroke-linecap="round" marker-end="url(#arrow)"/>
<line x1="740" y1="350" x2="830" y2="410" stroke="rgb(111 218 238)" stroke-width="4" stroke-linecap="round" marker-end="url(#arrow)"/>
</svg>
