<svg xmlns="http://www.w3.org/2000/svg" width="1200" height="650" viewBox="0 0 1200 650" role="img" aria-labelledby="title desc">
  <title id="title">.supra Package Anatomy</title>
  <desc id="desc">The .supra v1 sections used by AI Workbench examples</desc>
  <defs>
    <linearGradient id="bg" x1="0" x2="1" y1="0" y2="1">
      <stop offset="0%" stop-color="rgb(8 17 31)"/>
      <stop offset="100%" stop-color="rgb(17 39 58)"/>
    </linearGradient>
    <filter id="shadow" x="-20%" y="-20%" width="140%" height="140%">
      <feDropShadow dx="0" dy="10" stdDeviation="9" flood-color="#000" flood-opacity="0.24"/>
    </filter>
    <marker id="arrow" viewBox="0 0 10 10" refX="8" refY="5" markerWidth="7" markerHeight="7" orient="auto-start-reverse">
      <path d="M 0 0 L 10 5 L 0 10 z" fill="rgb(111 218 238)"/>
    </marker>
  </defs>
  <rect width="1200" height="650" rx="28" fill="url(#bg)"/>
  <line x1="0" y1="0" x2="0" y2="650" stroke="rgb(42 76 102 / 0.16)" stroke-width="1"/>
<line x1="80" y1="0" x2="80" y2="650" stroke="rgb(42 76 102 / 0.16)" stroke-width="1"/>
<line x1="160" y1="0" x2="160" y2="650" stroke="rgb(42 76 102 / 0.16)" stroke-width="1"/>
<line x1="240" y1="0" x2="240" y2="650" stroke="rgb(42 76 102 / 0.16)" stroke-width="1"/>
<line x1="320" y1="0" x2="320" y2="650" stroke="rgb(42 76 102 / 0.16)" stroke-width="1"/>
<line x1="400" y1="0" x2="400" y2="650" stroke="rgb(42 76 102 / 0.16)" stroke-width="1"/>
<line x1="480" y1="0" x2="480" y2="650" stroke="rgb(42 76 102 / 0.16)" stroke-width="1"/>
<line x1="560" y1="0" x2="560" y2="650" stroke="rgb(42 76 102 / 0.16)" stroke-width="1"/>
<line x1="640" y1="0" x2="640" y2="650" stroke="rgb(42 76 102 / 0.16)" stroke-width="1"/>
<line x1="720" y1="0" x2="720" y2="650" stroke="rgb(42 76 102 / 0.16)" stroke-width="1"/>
<line x1="800" y1="0" x2="800" y2="650" stroke="rgb(42 76 102 / 0.16)" stroke-width="1"/>
<line x1="880" y1="0" x2="880" y2="650" stroke="rgb(42 76 102 / 0.16)" stroke-width="1"/>
<line x1="960" y1="0" x2="960" y2="650" stroke="rgb(42 76 102 / 0.16)" stroke-width="1"/>
<line x1="1040" y1="0" x2="1040" y2="650" stroke="rgb(42 76 102 / 0.16)" stroke-width="1"/>
<line x1="1120" y1="0" x2="1120" y2="650" stroke="rgb(42 76 102 / 0.16)" stroke-width="1"/>
<line x1="1200" y1="0" x2="1200" y2="650" stroke="rgb(42 76 102 / 0.16)" stroke-width="1"/>
<line x1="0" y1="0" x2="1200" y2="0" stroke="rgb(42 76 102 / 0.13)" stroke-width="1"/>
<line x1="0" y1="80" x2="1200" y2="80" stroke="rgb(42 76 102 / 0.13)" stroke-width="1"/>
<line x1="0" y1="160" x2="1200" y2="160" stroke="rgb(42 76 102 / 0.13)" stroke-width="1"/>
<line x1="0" y1="240" x2="1200" y2="240" stroke="rgb(42 76 102 / 0.13)" stroke-width="1"/>
<line x1="0" y1="320" x2="1200" y2="320" stroke="rgb(42 76 102 / 0.13)" stroke-width="1"/>
<line x1="0" y1="400" x2="1200" y2="400" stroke="rgb(42 76 102 / 0.13)" stroke-width="1"/>
<line x1="0" y1="480" x2="1200" y2="480" stroke="rgb(42 76 102 / 0.13)" stroke-width="1"/>
<line x1="0" y1="560" x2="1200" y2="560" stroke="rgb(42 76 102 / 0.13)" stroke-width="1"/>
<line x1="0" y1="640" x2="1200" y2="640" stroke="rgb(42 76 102 / 0.13)" stroke-width="1"/>
  <path d="M 0 560 C 300 490, 816 620, 1200 530" fill="none" stroke="rgb(111 218 238 / 0.28)" stroke-width="4"/>
  <path d="M 744 0 C 912 120, 1080 170, 1200 260" fill="none" stroke="rgb(186 238 111 / 0.22)" stroke-width="5"/>
  <text x="48" y="72" fill="rgb(245 250 255)" font-size="36" font-family="Arial, Helvetica, sans-serif" font-weight="700">.supra Package Anatomy</text>
<text x="50" y="108" fill="rgb(184 211 225)" font-size="18" font-family="Arial, Helvetica, sans-serif" font-weight="400">The v1 sections that make a package portable and reviewable</text>
<g filter="url(#shadow)">
<rect x="438" y="150" width="324" height="360" rx="22" fill="rgb(12 29 45)" stroke="rgb(111 218 238 / 0.62)" stroke-width="2"/>
<text x="476" y="202" fill="rgb(111 218 238)" font-size="44" font-family="Arial, Helvetica, sans-serif" font-weight="700">{</text>
<text x="508" y="198" fill="rgb(245 250 255)" font-size="22" font-family="Arial, Helvetica, sans-serif" font-weight="400">&quot;key&quot;: &quot;example&quot;</text>
<text x="508" y="248" fill="rgb(186 238 111)" font-size="22" font-family="Arial, Helvetica, sans-serif" font-weight="400">&quot;metadata&quot;: {...}</text>
<text x="508" y="298" fill="rgb(246 189 96)" font-size="22" font-family="Arial, Helvetica, sans-serif" font-weight="400">&quot;columns&quot;: [...]</text>
<text x="508" y="348" fill="rgb(238 111 164)" font-size="22" font-family="Arial, Helvetica, sans-serif" font-weight="400">&quot;workflows&quot;: [...]</text>
<text x="508" y="398" fill="rgb(111 218 238)" font-size="22" font-family="Arial, Helvetica, sans-serif" font-weight="400">&quot;main_workbench&quot;: {...}</text>
<text x="476" y="468" fill="rgb(111 218 238)" font-size="44" font-family="Arial, Helvetica, sans-serif" font-weight="700">}</text>
</g>
<g filter="url(#shadow)">
<rect x="80" y="160" width="260" height="116" rx="16" fill="rgb(18 48 72)" stroke="rgb(186 238 111 / 0.72)" stroke-width="2"/>
<rect x="80" y="160" width="260" height="7" rx="3.5" fill="rgb(186 238 111)"/>
<text x="102" y="203" fill="rgb(245 250 255)" font-size="18" font-family="Arial, Helvetica, sans-serif" font-weight="700">metadata</text>
<text x="102" y="238" fill="rgb(184 211 225)" font-size="14" font-family="Arial, Helvetica, sans-serif" font-weight="400">identity</text>
<text x="102" y="260" fill="rgb(184 211 225)" font-size="14" font-family="Arial, Helvetica, sans-serif" font-weight="400">versions</text>
<text x="102" y="282" fill="rgb(184 211 225)" font-size="14" font-family="Arial, Helvetica, sans-serif" font-weight="400">starter rows</text>
</g>
<g filter="url(#shadow)">
<rect x="80" y="374" width="260" height="116" rx="16" fill="rgb(18 48 72)" stroke="rgb(238 111 164 / 0.72)" stroke-width="2"/>
<rect x="80" y="374" width="260" height="7" rx="3.5" fill="rgb(238 111 164)"/>
<text x="102" y="417" fill="rgb(245 250 255)" font-size="18" font-family="Arial, Helvetica, sans-serif" font-weight="700">output contracts</text>
<text x="102" y="452" fill="rgb(184 211 225)" font-size="14" font-family="Arial, Helvetica, sans-serif" font-weight="400">required fields</text>
<text x="102" y="474" fill="rgb(184 211 225)" font-size="14" font-family="Arial, Helvetica, sans-serif" font-weight="400">quality gates</text>
</g>
<g filter="url(#shadow)">
<rect x="860" y="160" width="260" height="116" rx="16" fill="rgb(18 48 72)" stroke="rgb(246 189 96 / 0.72)" stroke-width="2"/>
<rect x="860" y="160" width="260" height="7" rx="3.5" fill="rgb(246 189 96)"/>
<text x="882" y="203" fill="rgb(245 250 255)" font-size="18" font-family="Arial, Helvetica, sans-serif" font-weight="700">columns</text>
<text x="882" y="238" fill="rgb(184 211 225)" font-size="14" font-family="Arial, Helvetica, sans-serif" font-weight="400">manual</text>
<text x="882" y="260" fill="rgb(184 211 225)" font-size="14" font-family="Arial, Helvetica, sans-serif" font-weight="400">ai_tool</text>
<text x="882" y="282" fill="rgb(184 211 225)" font-size="14" font-family="Arial, Helvetica, sans-serif" font-weight="400">shortcut</text>
</g>
<g filter="url(#shadow)">
<rect x="860" y="374" width="260" height="116" rx="16" fill="rgb(18 48 72)" stroke="rgb(111 218 238 / 0.72)" stroke-width="2"/>
<rect x="860" y="374" width="260" height="7" rx="3.5" fill="rgb(111 218 238)"/>
<text x="882" y="417" fill="rgb(245 250 255)" font-size="18" font-family="Arial, Helvetica, sans-serif" font-weight="700">main_workbench</text>
<text x="882" y="452" fill="rgb(184 211 225)" font-size="14" font-family="Arial, Helvetica, sans-serif" font-weight="400">exact mirror</text>
<text x="882" y="474" fill="rgb(184 211 225)" font-size="14" font-family="Arial, Helvetica, sans-serif" font-weight="400">import-ready</text>
</g>
<line x1="346" y1="216" x2="438" y2="236" stroke="rgb(186 238 111)" stroke-width="4" stroke-linecap="round" marker-end="url(#arrow)"/>
<line x1="346" y1="430" x2="438" y2="390" stroke="rgb(238 111 164)" stroke-width="4" stroke-linecap="round" marker-end="url(#arrow)"/>
<line x1="860" y1="216" x2="762" y2="296" stroke="rgb(246 189 96)" stroke-width="4" stroke-linecap="round" marker-end="url(#arrow)"/>
<line x1="860" y1="430" x2="762" y2="400" stroke="rgb(111 218 238)" stroke-width="4" stroke-linecap="round" marker-end="url(#arrow)"/>
</svg>
